<?xml version="1.0" encoding="utf-8"?>
<!DOCTYPE svg PUBLIC "-//W3C//DTD SVG 1.1//EN" "http://www.w3.org/Graphics/SVG/1.1/DTD/svg11.dtd">
<svg version="1.1" id="Layer_1" xmlns="http://www.w3.org/2000/svg" xmlns:xlink="http://www.w3.org/1999/xlink" x="0px" y="0px"
	 width="1146px" height="410.083px" viewBox="0 0 1146 410.083" enable-background="new 0 0 1146 410.083" xml:space="preserve">
<g>
	<defs>
		<rect id="SVGID_1_" width="1146" height="410.083"/>
	</defs>
	<clipPath id="SVGID_2_">
		<use xlink:href="#SVGID_1_"  overflow="visible"/>
	</clipPath>
	<g clip-path="url(#SVGID_2_)">
		<defs>
			<rect id="SVGID_3_" width="1146" height="410.083"/>
		</defs>
		<clipPath id="SVGID_4_">
			<use xlink:href="#SVGID_3_"  overflow="visible"/>
		</clipPath>
		<g opacity="0.78" clip-path="url(#SVGID_4_)">
			<g>
				<defs>
					<rect id="SVGID_5_" x="20.569" y="14.171" width="1110.991" height="381.899"/>
				</defs>
				<clipPath id="SVGID_6_">
					<use xlink:href="#SVGID_5_"  overflow="visible"/>
				</clipPath>
				<path clip-path="url(#SVGID_6_)" fill="#002B8C" d="M1119.854,152.913c-0.002-0.002-0.004-0.002-0.006-0.004
					c-0.68-0.66-1.381-1.285-2.101-1.879c10.095-18.956,9.077-40.73-4.357-56.749c-0.299-0.354-0.602-0.7-0.963-1.103
					c-11.562-12.8-29.72-16.66-41.849-16.118c-7.955,0.374-15.934,1.962-23.713,4.722c-6.388,2.266-12.754,5.66-19.055,10.147
					c-1.383-1.763-2.898-2.878-4.608-4.359c-4.988-4.32-13.621-9.57-26.518-7.57h-0.004c-14.939,0-26.126,9.245-31.708,20.006
					c-6.296-3.884-13.694-6.117-21.334-5.527c-0.898,0.069-1.798,0.056-2.697,0.202c1.797-6.226,2.437-12.604,1.686-18.389
					c-1.164-9.002-5.535-17.089-12.308-22.209c-6.726-5.091-15.296-7.177-24.12-5.864c-23.604,3.497-42.151,29.492-38.91,54.506
					c0.156,1.215,0.372,2.361,0.617,3.473c-3.28,2.061-6.56,4.683-9.878,7.877c-7.633-5.423-17.049-7.661-26.67-6.233
					c-8.175,1.209-15.723,4.314-22.687,8.691c-5.132-2.887-11.062-3.982-17.029-3.102c-1.032,0.153-2.054,0.33-3.06,0.529
					c4.568-11.168,9.185-22.278,13.734-33.228c3.21-7.728,6.419-15.455,9.609-23.186c0.262-0.636,0.498-1.283,0.704-1.942
					l-0.071,0.228c0.727-1.981,2.652-7.245,1.752-14.199c-1.089-8.41-5.234-15.724-11.678-20.595
					c-6.276-4.749-14.128-6.712-22.087-5.531c-14.551,2.154-27.468,10.693-33.936,22.372c-4.028,6.773-7.146,13.889-9.905,20.182
					c-0.597,1.359-1.186,2.705-1.806,4.093c-7.405,16.701-14.949,34.892-23.761,57.299c-1.201,3.076-2.347,6.16-3.485,9.246
					c-17.035,1.843-33.768,9.516-48.738,22.109c-1.05-1.022-2.145-2.002-3.325-2.895c-7.779-5.881-17.556-8.309-27.555-6.831
					c-8.175,1.209-15.723,4.315-22.688,8.692c-5.134-2.887-11.058-3.98-17.03-3.102c-16.609,2.459-30.053,10.988-36.848,23.343
					c-0.434,0.784-0.849,1.567-1.25,2.347c-10.769-6.966-23.775-9.179-33.141-8.755c-7.955,0.374-15.933,1.962-23.712,4.722
					c-7.485,2.657-14.94,6.858-22.296,12.554c-6.108-5.386-13.78-8.112-21.656-7.737c-6.822,0.342-12.348,2.791-15.595,4.334
					c-18.413,3.847-24.91,3.904-29.263,3.943c-6.557,0.059-11.952,0.385-21.533,3.992c-6.161,2.263-11.332,5.94-15.542,10.282
					c-7.097-5.087-16.344-7.09-26.142-5.637c-4.584,0.678-8.576,1.83-12.096,3.548c-5.461-1.089-11.399-1.235-17.576-0.319
					c-37.55,5.561-82.397,55.197-88.851,104.2c-10.163,0.279-20.137-0.641-31.493-2.054c2.708-5.918,5.493-12.114,8.415-18.612
					c3.719-8.269,7.639-16.99,11.865-26.161c9.709-21.095,19.815-40.076,29.331-56.339c7.336,4.301,15.907,5.958,24.563,4.672
					c17.005-2.52,32.199-21.754,41.95-37.447c7.881-12.682,20.658-37.368,17.697-60.217c-1.601-12.365-7.596-23.042-16.88-30.063
					c-6.616-5.004-18.039-10.441-34.9-7.945c-23.116,3.422-47.555,23.543-74.713,61.514c-18.293,25.576-37.857,59.57-53.707,93.328
					c-4.721,10.134-9.088,20.26-13.312,30.053c-6.08,14.094-11.912,27.618-17.999,39.263c-9.993-0.267-18.426,0.154-25.883,1.258
					c-69.004,10.215-66.967,53.41-65.859,61.964c0.822,6.343,3.004,23.194,17.997,34.531c8.701,6.581,19.58,9.838,33.002,9.838
					c4.665,0,9.64-0.395,14.936-1.18c25.127-3.72,45.143-13.499,61.995-30.464c3.552,0.631,7.009,1.288,10.41,1.934
					c20.114,3.825,40.913,7.772,69.868,3.491c6.454-0.955,16.446-2.885,25.309-6.508c6.236,1.96,12.898,2.514,19.602,1.512
					c11.486-1.7,23.051-8.721,33.5-18.359c0.484,0.401,0.977,0.791,1.479,1.17c8.978,6.791,20.356,9.576,32.031,7.849
					c5.334-0.79,10.646-2.558,15.881-5.279c1.295,0.037,2.545,0.024,3.912-0.043c3.316-0.173,6.186-0.641,10.186-1.431v-0.004
					c8-1.622,68.982-14.626,88.616-21.712c0.751,0.266,1.547,0.519,2.318,0.761c7.439,2.333,15.307,3.516,23.348,3.516
					c13.578-0.002,27.682-3.453,40.771-9.979c1.26-0.627,2.514-1.281,3.757-1.961c6.51,1.806,13.38,2.581,17.835,1.92
					c14.738-2.179,22.607-14.818,25.377-20.337c7.437-14.528,14.688-27.235,22.205-38.903c2.646-4.131,6.303-9.599,10.311-15.408
					c1.152,0.623,2.348,1.147,3.56,1.62c-0.228,5.172-0.083,10.221,0.542,15.044c1.896,14.63,8.006,26.225,17.671,33.533
					c6.649,5.028,14.731,7.665,23.234,7.665c2.045,0,4.112-0.153,6.189-0.46c12.41-1.837,23.714-8.311,33.759-17.177
					c0.881,0.8,1.748,1.514,2.587,2.146c9.107,6.889,20.649,9.352,34.28,7.337c6.94-1.025,13.83-3.713,20.579-8.015
					c1.156-0.044,2.146-0.154,3.031-0.285c14.736-2.178,22.603-14.815,25.374-20.34c7.435-14.531,14.688-27.236,22.208-38.904
					c2.644-4.13,6.298-9.598,10.304-15.406c3.206,1.731,6.666,2.87,10.244,3.419c-1.582,7.169-2.076,13.139-1.402,18.326
					c1.596,12.316,8.593,23.977,19.196,31.993c8.778,6.638,19.251,10.215,29.505,10.215c2.111,0,4.212-0.147,6.288-0.457
					c9.94-1.47,20.392-6.932,29.794-13.811c6.001,2.708,12.513,3.826,18.7,3.354c12.503-0.96,26.356-8.514,42.351-23.122
					c7.398-6.758,15.055-14.861,22.43-23.693c1.783,2.728,3.886,5.385,6.373,7.918c6.058,6.174,13.839,10.783,23.136,13.704
					c7.44,2.333,15.288,3.516,23.33,3.516c13.578-0.002,27.672-3.453,40.761-9.979c17.049-8.499,29.839-20.479,40.104-31.082
					C1134.168,188.762,1133.804,166.419,1119.854,152.913 M915.023,95.519c-0.274,0.098-0.596,0.189-0.94,0.271
					c0.236-0.381,0.469-0.765,0.69-1.155C914.87,94.938,914.959,95.236,915.023,95.519 M895.148,83.25
					c-0.05,0.085-0.103,0.168-0.151,0.253c-0.019-0.067-0.045-0.14-0.062-0.206C894.999,83.277,895.085,83.268,895.148,83.25"/>
				<path clip-path="url(#SVGID_6_)" fill="none" stroke="#0063FE" stroke-width="2" stroke-miterlimit="10" d="M1119.854,152.913
					c-0.002-0.002-0.004-0.002-0.006-0.004c-0.68-0.66-1.381-1.285-2.101-1.879c10.095-18.956,9.077-40.73-4.357-56.749
					c-0.299-0.354-0.602-0.7-0.963-1.103c-11.562-12.8-29.72-16.66-41.849-16.118c-7.955,0.374-15.934,1.962-23.713,4.722
					c-6.388,2.266-12.754,5.66-19.055,10.147c-1.383-1.763-2.898-2.878-4.608-4.359c-4.988-4.32-13.621-9.57-26.518-7.57h-0.004
					c-14.939,0-26.126,9.245-31.708,20.006c-6.296-3.884-13.694-6.117-21.334-5.527c-0.898,0.069-1.798,0.056-2.697,0.202
					c1.797-6.226,2.437-12.604,1.686-18.389c-1.164-9.002-5.535-17.089-12.308-22.209c-6.726-5.091-15.296-7.177-24.12-5.864
					c-23.604,3.497-42.151,29.492-38.91,54.506c0.156,1.215,0.372,2.361,0.617,3.473c-3.28,2.061-6.56,4.683-9.878,7.877
					c-7.633-5.423-17.049-7.661-26.67-6.233c-8.175,1.209-15.723,4.314-22.687,8.691c-5.132-2.887-11.062-3.982-17.029-3.102
					c-1.032,0.153-2.054,0.33-3.06,0.529c4.568-11.168,9.185-22.278,13.734-33.228c3.21-7.728,6.419-15.455,9.609-23.186
					c0.262-0.636,0.498-1.283,0.704-1.942l-0.071,0.228c0.727-1.981,2.652-7.245,1.752-14.199
					c-1.089-8.41-5.234-15.724-11.678-20.595c-6.276-4.749-14.128-6.712-22.087-5.531c-14.551,2.154-27.468,10.693-33.936,22.372
					c-4.028,6.773-7.146,13.889-9.905,20.182c-0.597,1.359-1.186,2.705-1.806,4.093c-7.405,16.701-14.949,34.892-23.761,57.299
					c-1.201,3.076-2.347,6.16-3.485,9.246c-17.035,1.843-33.768,9.516-48.738,22.109c-1.05-1.022-2.145-2.002-3.325-2.895
					c-7.779-5.881-17.556-8.309-27.555-6.831c-8.175,1.209-15.723,4.315-22.688,8.692c-5.134-2.887-11.058-3.98-17.03-3.102
					c-16.609,2.459-30.053,10.988-36.848,23.343c-0.434,0.784-0.849,1.567-1.25,2.347c-10.769-6.966-23.775-9.179-33.141-8.755
					c-7.955,0.374-15.933,1.962-23.712,4.722c-7.485,2.657-14.94,6.858-22.296,12.554c-6.108-5.386-13.78-8.112-21.656-7.737
					c-6.822,0.342-12.348,2.791-15.595,4.334c-18.413,3.847-24.91,3.904-29.263,3.943c-6.557,0.059-11.952,0.385-21.533,3.992
					c-6.161,2.263-11.332,5.94-15.542,10.282c-7.097-5.087-16.344-7.09-26.142-5.637c-4.584,0.678-8.576,1.83-12.096,3.548
					c-5.461-1.089-11.399-1.235-17.576-0.319c-37.55,5.561-82.397,55.197-88.851,104.2c-10.163,0.279-20.137-0.641-31.493-2.054
					c2.708-5.918,5.493-12.114,8.415-18.612c3.719-8.269,7.639-16.99,11.865-26.161c9.709-21.095,19.815-40.076,29.331-56.339
					c7.336,4.301,15.907,5.958,24.563,4.672c17.005-2.52,32.199-21.754,41.95-37.447c7.881-12.682,20.658-37.368,17.697-60.217
					c-1.601-12.365-7.596-23.042-16.88-30.063c-6.616-5.004-18.039-10.441-34.9-7.945c-23.116,3.422-47.555,23.543-74.713,61.514
					c-18.293,25.576-37.857,59.57-53.707,93.328c-4.721,10.134-9.088,20.26-13.312,30.053c-6.08,14.094-11.912,27.618-17.999,39.263
					c-9.993-0.267-18.426,0.154-25.883,1.258c-69.004,10.215-66.967,53.41-65.859,61.964c0.822,6.343,3.004,23.194,17.997,34.531
					c8.701,6.581,19.58,9.838,33.002,9.838c4.665,0,9.64-0.395,14.936-1.18c25.127-3.72,45.143-13.499,61.995-30.464
					c3.552,0.631,7.009,1.288,10.41,1.934c20.114,3.825,40.913,7.772,69.868,3.491c6.454-0.955,16.446-2.885,25.309-6.508
					c6.236,1.96,12.898,2.514,19.602,1.512c11.486-1.7,23.051-8.721,33.5-18.359c0.484,0.401,0.977,0.791,1.479,1.17
					c8.978,6.791,20.356,9.576,32.031,7.849c5.334-0.79,10.646-2.558,15.881-5.279c1.295,0.037,2.545,0.024,3.912-0.043
					c3.316-0.173,6.186-0.641,10.186-1.431v-0.004c8-1.622,68.982-14.626,88.616-21.712c0.751,0.266,1.547,0.519,2.318,0.761
					c7.439,2.333,15.307,3.516,23.348,3.516c13.578-0.002,27.682-3.453,40.771-9.979c1.26-0.627,2.514-1.281,3.757-1.961
					c6.51,1.806,13.38,2.581,17.835,1.92c14.738-2.179,22.607-14.818,25.377-20.337c7.437-14.528,14.688-27.235,22.205-38.903
					c2.646-4.131,6.303-9.599,10.311-15.408c1.152,0.623,2.348,1.147,3.56,1.62c-0.228,5.172-0.083,10.221,0.542,15.044
					c1.896,14.63,8.006,26.225,17.671,33.533c6.649,5.028,14.731,7.665,23.234,7.665c2.045,0,4.112-0.153,6.189-0.46
					c12.41-1.837,23.714-8.311,33.759-17.177c0.881,0.8,1.748,1.514,2.587,2.146c9.107,6.889,20.649,9.352,34.28,7.337
					c6.94-1.025,13.83-3.713,20.579-8.015c1.156-0.044,2.146-0.154,3.031-0.285c14.736-2.178,22.603-14.815,25.374-20.34
					c7.435-14.531,14.688-27.236,22.208-38.904c2.644-4.13,6.298-9.598,10.304-15.406c3.206,1.731,6.666,2.87,10.244,3.419
					c-1.582,7.169-2.076,13.139-1.402,18.326c1.596,12.316,8.593,23.977,19.196,31.993c8.778,6.638,19.251,10.215,29.505,10.215
					c2.111,0,4.212-0.147,6.288-0.457c9.94-1.47,20.392-6.932,29.794-13.811c6.001,2.708,12.513,3.826,18.7,3.354
					c12.503-0.96,26.356-8.514,42.351-23.122c7.398-6.758,15.055-14.861,22.43-23.693c1.783,2.728,3.886,5.385,6.373,7.918
					c6.058,6.174,13.839,10.783,23.136,13.704c7.44,2.333,15.288,3.516,23.33,3.516c13.578-0.002,27.672-3.453,40.761-9.979
					c17.049-8.499,29.839-20.479,40.104-31.082C1134.168,188.762,1133.804,166.419,1119.854,152.913z M915.023,95.519
					c-0.274,0.098-0.596,0.189-0.94,0.271c0.236-0.381,0.469-0.765,0.69-1.155C914.87,94.938,914.959,95.236,915.023,95.519z
					 M895.148,83.25c-0.05,0.085-0.103,0.168-0.151,0.253c-0.019-0.067-0.045-0.14-0.062-0.206
					C894.999,83.277,895.085,83.268,895.148,83.25z"/>
			</g>
		</g>
		<path clip-path="url(#SVGID_4_)" fill="#000040" d="M839.287,192.311c-1.539,2.847-3.55,5.183-7.025,5.698
			c-5.745,0.85-9.521-4.122-10.242-9.692c-1.073-8.283,3.082-17.196,6.999-23.744l-0.305-0.247
			c-6.873,1.6-37.807,47.668-43.468,56.513c-8.505,13.195-16.247,27.006-23.417,41.023c-1.404,2.828-4.281,6.892-7.354,7.347
			c-2.271,0.336-11.419-1.946-12.938-3.178c-1.01-0.431-1.122-1.29-1.232-2.146c-0.648-4.998,3.502-12.893,5.739-18.754
			c8.714-23.125,17.751-45.861,26.789-68.6c2.985-7.429,5.267-15.044,9.128-22.022c3.748-6.814,12.172-10.1,19.254-11.148
			c2.673-0.395,3.613,2.667,3.927,5.095c0.871,6.713-9.953,28.258-12.958,35.545c10.599-17,28.441-43.224,48.751-46.231
			c7.082-1.049,13.207,3.14,14.226,10.994C856.212,156.905,843.535,184.111,839.287,192.311"/>
		<path clip-path="url(#SVGID_4_)" fill="#000040" d="M267.996,181.141c-9.484,1.405-15.406-6.452-16.295-13.308
			c-0.629-4.857,1.25-7.172,2.587-7.37c0.802-0.118,1.409,0.373,1.672,1.352c8.582-4.181,25.574-36.33,24.778-42.472
			c-0.112-0.857-0.702-1.207-1.769-1.048c-8.951,1.326-49.692,55.357-83.268,128.308c-13.605,29.526-24.119,54.517-34.729,74.577
			c33.998,3.845,56.986,9.278,86.248,4.943c16.701-2.474,19.26-7.946,20.597-8.144c0.666-0.099,1.275,0.393,1.385,1.25
			c0.055,0.428,0.016,1.162-0.293,1.936c-1.004,2.769-7.878,19.071-11.056,21.869c-3.312,2.82-13.491,6.223-25.249,7.961
			c-34.472,5.106-54.282-3.128-86.028-7.449c-13.92,17.636-30.597,28.691-56.25,32.49c-33.135,4.908-36.964-10.974-38.444-22.399
			c-1.462-11.283,4.959-28.974,45.444-34.968c10.154-1.505,22.438-1.286,35.92-0.226c14.341-22.793,25.566-53.86,39.63-84.037
			c26.145-55.693,74.391-135.872,110.065-141.155c16.967-2.513,23.163,8.506,24.291,17.22
			C310.562,136.18,278.953,179.518,267.996,181.141 M96.681,342.054c-12.827,1.898-17.206,4.877-16.929,7.02
			c0.277,2.142,5.096,3.612,10.708,2.782c9.087-1.347,16.904-5.125,24.041-10.985C108.244,340.924,102.424,341.202,96.681,342.054"
			/>
		<path clip-path="url(#SVGID_4_)" fill="#000040" d="M382.465,293.194c0.315,2.429,0.478,4.731-0.006,6.259
			c-2.626,8.104-20.032,34.555-37.935,37.207c-13.896,2.057-21.446-8.907-23.001-20.904c-0.611-4.713-0.287-9.563,0.914-13.964
			c-12.05,22.603-31.564,42.23-44.928,44.209c-11.489,1.702-20.727-6.538-23.376-16.48c-0.716-2.368-1.148-4.633-1.463-7.062
			c-5.495-42.417,38.91-94.846,68.572-99.239c10.288-1.522,16.59,1.911,18.671,6.406c3.463-7.937,5.527-8.825,11.005-9.636
			c5.612-0.831,10.451,0.781,11.117,5.923c0.278,2.143-0.057,4.812-1.092,6.276c-1.709,2.583-18.968,44.877-20.047,71.236
			c-0.138,1.04-0.087,2.487,0.118,4.06c0.462,3.572,1.954,7.717,5.293,7.223c10.689-1.584,26.254-29.654,28.131-31.969
			c0.824-0.997,1.838-1.582,2.773-1.721c1.471-0.218,2.821,0.747,3.157,2.298C380.877,285.132,381.966,289.339,382.465,293.194
			 M291.423,272.614c-10.075,14.737-18.751,38.15-17.641,46.718c0.297,2.286,1.264,3.452,3.135,3.175
			c5.077-0.75,31.858-33.685,40.27-48.612c4.96-9.032,12.25-24.23,18.017-35.421C326.117,239.819,309.133,246.411,291.423,272.614"
			/>
		<path clip-path="url(#SVGID_4_)" fill="#000040" d="M454.312,226.666c-14.275,13.133-56.344,51.336-69.968,79.304
			c12.75-4.83,67.632-15.817,73.655-23.193c0.897-1.057,1.822-1.535,2.9-1.59c1.213-0.061,2.585,0.447,4.253,1.519
			c1.385,0.797,1.901,6.4,2.15,12.015c0.189,4.322-4.183,12.338-7.609,14.242c-6.464,3.501-74.917,19.069-86.704,21.251
			c-2.54,0.56-4.556,0.808-6.307,0.896c-6.737,0.337-8.456-1.888-9.86-3.114c-1.403-1.229-2.313-6.524-2.491-10.557
			c-0.087-2.018-0.028-3.751,0.337-4.637c16.926-38.813,48.991-61.935,67.076-80.6c-19.34,2.417-25.74,2.634-34.955,4.975
			l-0.404,0.02c-1.481,0.075-2.757-1.303-2.904-4.616c-0.089-2.017,4.34-14.943,13.906-18.455c14.613-5.499,9.165,1.231,49.7-7.449
			c1.739-0.376,5.8-3.18,9.574-3.369c3.772-0.189,7.997,3.784,8.32,11.13c0.121,2.736-0.565,5.514-2.492,7.774
			C461.206,223.722,459.234,224.974,454.312,226.666"/>
		<path clip-path="url(#SVGID_4_)" fill="#000040" d="M635.965,225.551c-1.537,2.848-3.55,5.183-7.023,5.698
			c-5.745,0.85-9.522-4.121-10.244-9.691c-1.073-8.285,3.084-17.197,6.999-23.745l-0.303-0.248
			c-6.875,1.601-37.807,47.669-43.47,56.515c-8.503,13.194-16.245,27.005-23.415,41.023c-1.404,2.826-4.283,6.891-7.356,7.345
			c-2.272,0.338-11.417-1.944-12.939-3.177c-1.01-0.433-1.12-1.29-1.23-2.146c-0.649-4.999,3.502-12.893,5.739-18.753
			c8.713-23.125,17.749-45.861,26.787-68.599c2.987-7.43,5.267-15.045,9.13-22.023c3.746-6.813,12.172-10.099,19.252-11.147
			c2.673-0.397,3.615,2.666,3.929,5.094c0.871,6.713-9.953,28.259-12.958,35.544c10.597-17,28.441-43.224,48.749-46.229
			c7.082-1.049,13.209,3.139,14.228,10.993C652.892,190.146,640.213,217.351,635.965,225.551"/>
		<path clip-path="url(#SVGID_4_)" fill="#000040" d="M795.636,54.373c-14.197,34.419-28.812,68.753-42.016,103.46
			c-5.706,14.819-28.721,79.946-27.202,91.659l0.146,1.143c0.389,2.998,1.694,5.718,4.769,5.262
			c11.49-1.702,26.745-28.997,29.447-32.31c0.824-0.996,1.836-1.582,2.772-1.72c3.208-0.475,4.257,4.464,5.256,12.178
			c0.314,2.426,0.475,4.731-0.006,6.259c-2.626,8.104-20.167,34.573-37.938,37.205c-15.23,2.255-21.059-4.887-22.392-15.171
			c-1.203-9.284,1.459-21.321,4.185-30.752c-10.089,18.817-30.778,50.412-52.423,53.616c-12.293,1.822-18.127-8.523-19.606-19.949
			c-5.203-40.134,31.785-103.303,77.413-106.663c3.74-0.555,7.736,1.91,10.741,4.085c4.083-9.484,7.21-18.972,10.892-28.396
			c7.477-19.012,15.123-37.758,23.343-56.298c3.273-7.327,6.471-15.223,10.618-22.097c3.056-5.838,10.072-9.497,16.484-10.447
			c3.474-0.514,5.812,1.76,6.274,5.33C796.58,52.195,796.021,53.152,795.636,54.373 M658.449,261.374
			c0.186,1.428,3.9,3.953,5.504,3.716c8.818-1.306,38.531-51.065,43.43-59.506c5.339-9.233,10.394-18.571,14.99-28.277
			C664.572,192.116,654.865,255.539,658.449,261.374"/>
		<path clip-path="url(#SVGID_4_)" fill="#000040" d="M926.229,209.846c-6.707,21.808-35.48,46.053-50.043,48.208
			c-12.025,1.781-25.871-8.396-27.5-20.963c-1.853-14.283,21.619-64.339,21.322-66.625c-0.427-3.285-6.272-5.33-6.698-8.616
			c-0.297-2.285,17.267-29.632,28.758-31.333c4.408-0.654,10.794,5.534,11.368,9.961c0.39,2.999-20.854,58.694-23.804,66.409
			c-2.466,6.188-7.947,17.48-7.06,24.335c0.518,4,4.103,4.343,7.444,3.847c16.166-2.393,36.938-43.211,41.082-43.824
			c3.738-0.554,4.803,9.769,5.138,12.341C926.496,205.585,926.791,207.87,926.229,209.846 M906.254,112.84
			c-5.214,0.771-8.254-1.688-8.976-7.258c-1.479-11.427,7.542-25.864,18.499-27.487c4.808-0.712,8.251,1.689,8.936,6.975
			C926.084,95.638,916.406,111.337,906.254,112.84"/>
		<path clip-path="url(#SVGID_4_)" fill="#000040" d="M986.709,193.335c-20.152,28.143-46.212,52.981-60.336,54.063
			c-6.46,0.495-15.004-3.91-15.796-15.703c-1.069-15.964,13.137-52.18,20.389-67.048c-3.313,3.002-6.756,6.157-8.37,6.28
			c-1.75,0.133-6.604-5.711-6.882-9.881c-0.061-0.864,0.151-1.747,0.52-2.352c2.227-3.062,23.18-33.436,35.289-34.364
			c6.321-0.484,11.08,3.922,11.396,8.669c0.706,10.499-31.596,77.301-30.788,89.382c0.039,0.576,0.326,0.843,0.868,0.803
			c4.842-0.372,29.985-28.751,40.148-44.565c12.363-19.306,22.345-39.875,21.853-47.21c-0.355-5.321-3.469-5.372-3.789-10.119
			c-0.3-4.458,4.477-11.907,13.355-12.587c7.401-0.567,12.928,3.2,13.736,15.282C1019.199,137.36,1005.379,167.185,986.709,193.335"
			/>
		<path clip-path="url(#SVGID_4_)" fill="#000040" d="M492.335,312.209c-5.549,0-10.958-0.798-16.096-2.41
			c-5.539-1.74-9.832-4.216-13.126-7.573c-11.371-11.579-7.149-28.914-5.761-34.612c4.232-17.393,8.607-35.38,22.03-49.953
			c9.588-10.41,19.042-17.317,28.101-20.532c5.541-1.966,11.18-3.094,16.764-3.356c5.948-0.279,16.914,1.669,22.793,8.179
			c0.161,0.179,0.302,0.34,0.442,0.505c10.96,13.069,3.731,31.555-8.648,42.299c-15.035,13.045-36.638,17.497-55.606,11.614
			c-1.635,5.268-2.986,10.816-4.365,16.48c-2.434,9.993-0.777,13.026,0.049,13.865c0.379,0.388,1.397,1.156,3.956,1.96
			c8.623,2.705,19.408,1.348,29.58-3.723c10.799-5.382,19.956-14.065,27.49-21.848c4.252-4.391,11.263-4.505,15.654-0.255
			c4.393,4.253,4.507,11.26,0.255,15.653c-8.839,9.13-19.734,19.391-33.522,26.264C512.432,309.698,502.17,312.207,492.335,312.209
			 M492.879,236.02c10.901,2.272,23.058-0.71,31.443-7.985c4.192-3.641,6.83-9.267,6.339-11.042
			c-1.276-0.601-3.978-1.175-5.376-1.104c-3.414,0.159-6.911,0.867-10.4,2.105c-5.55,1.969-12.196,7.041-19.217,14.665
			C494.676,233.735,493.748,234.855,492.879,236.02"/>
		<path clip-path="url(#SVGID_4_)" fill="#000040" d="M1045.834,225.661c-5.549,0-10.958-0.798-16.096-2.409
			c-5.539-1.74-9.832-4.217-13.126-7.573c-11.371-11.579-8.437-30.12-7.05-35.818c4.232-17.393,9.896-34.174,23.318-48.748
			c9.588-10.41,19.042-17.317,28.101-20.532c5.541-1.966,11.181-3.094,16.765-3.356c5.947-0.279,16.914,1.669,22.793,8.179
			c0.161,0.179,0.303,0.34,0.441,0.505c10.961,13.069,3.731,31.555-8.647,42.299c-15.035,13.045-36.638,17.497-55.606,11.614
			c-1.635,5.268-2.984,10.817-4.365,16.481c-2.434,9.993-0.776,13.026,0.05,13.865c0.379,0.388,1.396,1.156,3.957,1.96
			c8.622,2.705,19.407,1.349,29.579-3.723c10.799-5.381,19.955-14.065,27.489-21.847c4.252-4.391,11.264-4.505,15.654-0.255
			c4.394,4.253,4.507,11.26,0.255,15.653c-8.839,9.13-19.734,19.391-33.521,26.264
			C1065.931,223.151,1055.669,225.659,1045.834,225.661 M1046.378,149.473c10.901,2.272,23.058-0.71,31.443-7.986
			c4.191-3.64,6.829-9.266,6.339-11.042c-1.276-0.6-3.979-1.174-5.376-1.103c-3.414,0.159-6.911,0.867-10.4,2.105
			c-5.55,1.969-12.196,7.041-19.217,14.665C1048.175,147.188,1047.247,148.309,1046.378,149.473"/>
		<path clip-path="url(#SVGID_4_)" fill="#F8F8F8" d="M831.236,182.247c-1.539,2.847-3.551,5.183-7.025,5.698
			c-5.745,0.85-9.521-4.122-10.242-9.692c-1.073-8.283,3.082-17.196,6.999-23.744l-0.305-0.247
			c-6.873,1.6-37.807,47.668-43.468,56.512c-8.505,13.196-16.247,27.007-23.417,41.024c-1.404,2.828-4.281,6.892-7.354,7.347
			c-2.271,0.336-11.419-1.946-12.938-3.178c-1.011-0.431-1.122-1.29-1.232-2.146c-0.648-4.998,3.502-12.893,5.739-18.755
			c8.714-23.125,17.751-45.86,26.789-68.599c2.984-7.429,5.267-15.044,9.128-22.022c3.748-6.814,12.172-10.1,19.254-11.148
			c2.673-0.395,3.613,2.667,3.927,5.095c0.871,6.713-9.953,28.258-12.958,35.545c10.599-17,28.441-43.224,48.751-46.231
			c7.082-1.049,13.207,3.14,14.226,10.994C848.161,146.842,835.484,174.048,831.236,182.247"/>
		<path clip-path="url(#SVGID_4_)" fill="#F8F8F8" d="M259.945,171.077c-9.484,1.405-15.406-6.452-16.295-13.308
			c-0.629-4.857,1.25-7.172,2.587-7.37c0.802-0.118,1.409,0.373,1.672,1.352c8.582-4.181,25.574-36.33,24.778-42.471
			c-0.112-0.858-0.702-1.208-1.769-1.049c-8.951,1.326-49.692,55.357-83.268,128.308c-13.605,29.525-24.119,54.517-34.729,74.577
			c33.998,3.845,56.986,9.277,86.248,4.942c16.701-2.473,19.26-7.945,20.597-8.143c0.666-0.099,1.275,0.392,1.385,1.25
			c0.055,0.428,0.016,1.162-0.293,1.935c-1.004,2.77-7.878,19.072-11.056,21.87c-3.312,2.82-13.491,6.223-25.249,7.961
			c-34.472,5.106-54.282-3.128-86.028-7.45c-13.92,17.637-30.597,28.692-56.25,32.491c-33.135,4.908-36.964-10.974-38.444-22.399
			c-1.462-11.283,4.959-28.975,45.444-34.969c10.154-1.505,22.438-1.285,35.92-0.225c14.341-22.793,25.566-53.861,39.63-84.037
			C190.97,168.65,239.216,88.471,274.89,83.188c16.967-2.513,23.162,8.506,24.291,17.22
			C302.512,126.116,270.902,169.454,259.945,171.077 M88.63,331.99c-12.827,1.898-17.206,4.877-16.929,7.02
			c0.277,2.142,5.096,3.612,10.708,2.782c9.087-1.347,16.904-5.125,24.041-10.985C100.193,330.86,94.373,331.139,88.63,331.99"/>
		<path clip-path="url(#SVGID_4_)" fill="#F8F8F8" d="M374.415,283.131c0.315,2.429,0.478,4.731-0.006,6.259
			c-2.626,8.104-20.032,34.555-37.935,37.207c-13.896,2.057-21.446-8.907-23.001-20.904c-0.611-4.713-0.287-9.563,0.914-13.964
			c-12.05,22.603-31.564,42.23-44.928,44.209c-11.489,1.702-20.727-6.538-23.376-16.48c-0.716-2.368-1.148-4.634-1.463-7.062
			c-5.495-42.417,38.91-94.846,68.572-99.239c10.288-1.522,16.59,1.911,18.671,6.406c3.463-7.938,5.527-8.825,11.005-9.636
			c5.612-0.831,10.451,0.781,11.117,5.923c0.278,2.142-0.057,4.812-1.092,6.276c-1.709,2.583-18.968,44.877-20.047,71.236
			c-0.138,1.04-0.087,2.487,0.118,4.06c0.462,3.571,1.954,7.717,5.293,7.223c10.689-1.584,26.254-29.654,28.131-31.969
			c0.824-0.997,1.838-1.582,2.773-1.721c1.471-0.218,2.821,0.746,3.157,2.298C372.826,275.068,373.916,279.275,374.415,283.131
			 M283.373,262.551c-10.075,14.737-18.751,38.149-17.641,46.718c0.297,2.286,1.264,3.452,3.135,3.175
			c5.077-0.75,31.858-33.685,40.27-48.612c4.96-9.032,12.25-24.23,18.017-35.422C318.066,229.756,301.083,236.348,283.373,262.551"
			/>
		<path clip-path="url(#SVGID_4_)" fill="#F8F8F8" d="M446.261,216.603c-14.275,13.133-56.344,51.336-69.968,79.304
			c12.75-4.83,67.632-15.817,73.655-23.194c0.897-1.056,1.822-1.534,2.9-1.59c1.213-0.06,2.585,0.448,4.253,1.52
			c1.385,0.797,1.901,6.399,2.15,12.015c0.189,4.322-4.183,12.338-7.609,14.242c-6.464,3.501-74.917,19.069-86.704,21.251
			c-2.54,0.559-4.556,0.807-6.306,0.896c-6.738,0.338-8.457-1.887-9.861-3.113c-1.403-1.229-2.313-6.524-2.491-10.558
			c-0.087-2.017-0.028-3.751,0.337-4.636c16.926-38.813,48.991-61.935,67.076-80.6c-19.34,2.417-25.74,2.634-34.955,4.975
			l-0.404,0.02c-1.481,0.074-2.757-1.304-2.904-4.616c-0.089-2.018,4.34-14.943,13.906-18.455c14.613-5.499,9.165,1.232,49.7-7.449
			c1.739-0.376,5.8-3.18,9.574-3.369c3.772-0.189,7.997,3.784,8.32,11.13c0.121,2.737-0.565,5.514-2.492,7.775
			C453.155,213.658,451.183,214.91,446.261,216.603"/>
		<path clip-path="url(#SVGID_4_)" fill="#F8F8F8" d="M627.914,215.487c-1.537,2.848-3.551,5.183-7.023,5.697
			c-5.745,0.851-9.522-4.12-10.244-9.69c-1.073-8.285,3.084-17.197,6.999-23.745l-0.303-0.248
			c-6.875,1.601-37.807,47.669-43.47,56.514c-8.503,13.195-16.245,27.006-23.415,41.024c-1.404,2.826-4.283,6.891-7.356,7.345
			c-2.272,0.338-11.417-1.944-12.939-3.177c-1.01-0.433-1.12-1.29-1.23-2.147c-0.649-4.999,3.502-12.892,5.739-18.753
			c8.713-23.125,17.749-45.86,26.787-68.598c2.987-7.43,5.267-15.045,9.13-22.023c3.746-6.813,12.172-10.099,19.252-11.147
			c2.673-0.397,3.615,2.666,3.929,5.094c0.871,6.713-9.953,28.259-12.958,35.545c10.597-17,28.441-43.224,48.749-46.229
			c7.082-1.049,13.209,3.139,14.228,10.993C644.841,180.082,632.162,207.287,627.914,215.487"/>
		<path clip-path="url(#SVGID_4_)" fill="#F8F8F8" d="M787.585,44.31c-14.197,34.419-28.812,68.753-42.016,103.46
			c-5.706,14.819-28.721,79.946-27.203,91.659l0.147,1.143c0.389,2.998,1.694,5.717,4.768,5.261
			c11.491-1.701,26.746-28.997,29.448-32.309c0.824-0.996,1.836-1.582,2.772-1.72c3.208-0.476,4.257,4.464,5.256,12.178
			c0.313,2.426,0.475,4.731-0.006,6.259c-2.626,8.104-20.167,34.573-37.938,37.205c-15.23,2.255-21.059-4.887-22.392-15.171
			c-1.203-9.284,1.459-21.322,4.185-30.752c-10.089,18.817-30.778,50.412-52.423,53.616c-12.293,1.821-18.127-8.523-19.606-19.949
			c-5.203-40.134,31.784-103.303,77.412-106.663c3.741-0.555,7.737,1.91,10.742,4.085c4.083-9.484,7.21-18.972,10.892-28.396
			c7.477-19.012,15.123-37.758,23.343-56.298c3.272-7.327,6.471-15.223,10.618-22.097c3.056-5.838,10.071-9.497,16.484-10.447
			c3.474-0.514,5.812,1.76,6.274,5.33C788.528,42.131,787.971,43.088,787.585,44.31 M650.398,251.311
			c0.186,1.428,3.9,3.953,5.504,3.716c8.818-1.306,38.531-51.066,43.43-59.506c5.339-9.233,10.394-18.571,14.991-28.277
			C656.521,182.052,646.814,245.476,650.398,251.311"/>
		<path clip-path="url(#SVGID_4_)" fill="#F8F8F8" d="M918.179,199.782c-6.707,21.808-35.48,46.053-50.043,48.208
			c-12.025,1.781-25.871-8.396-27.5-20.964c-1.853-14.282,21.619-64.338,21.321-66.624c-0.426-3.285-6.271-5.33-6.697-8.616
			c-0.297-2.285,17.267-29.632,28.758-31.333c4.408-0.654,10.794,5.534,11.368,9.961c0.39,2.999-20.854,58.694-23.805,66.409
			c-2.465,6.188-7.946,17.481-7.059,24.335c0.517,4,4.103,4.343,7.444,3.848c16.166-2.395,36.938-43.212,41.082-43.825
			c3.737-0.554,4.803,9.769,5.138,12.341C918.445,195.522,918.74,197.807,918.179,199.782 M898.202,102.777
			c-5.213,0.771-8.253-1.688-8.975-7.258c-1.48-11.427,7.542-25.864,18.499-27.487c4.808-0.712,8.251,1.689,8.935,6.975
			C918.033,85.575,908.355,101.274,898.202,102.777"/>
		<path clip-path="url(#SVGID_4_)" fill="#F8F8F8" d="M978.658,183.271c-20.153,28.142-46.212,52.981-60.336,54.063
			c-6.46,0.494-15.004-3.91-15.796-15.703c-1.069-15.964,13.137-52.18,20.389-67.048c-3.313,3.002-6.756,6.157-8.371,6.28
			c-1.75,0.133-6.604-5.711-6.881-9.881c-0.061-0.864,0.151-1.747,0.52-2.352c2.227-3.062,23.18-33.436,35.289-34.364
			c6.321-0.484,11.079,3.922,11.396,8.669c0.706,10.499-31.596,77.301-30.788,89.382c0.039,0.576,0.326,0.843,0.868,0.802
			c4.842-0.372,29.985-28.75,40.148-44.564c12.363-19.306,22.345-39.875,21.853-47.21c-0.356-5.321-3.469-5.372-3.789-10.119
			c-0.3-4.458,4.477-11.907,13.355-12.587c7.401-0.567,12.928,3.2,13.736,15.282C1011.148,127.296,997.328,157.122,978.658,183.271"
			/>
		<path clip-path="url(#SVGID_4_)" fill="#F8F8F8" d="M484.284,302.146c-5.549,0-10.958-0.799-16.096-2.41
			c-5.539-1.74-9.832-4.216-13.126-7.573c-11.371-11.579-7.149-28.914-5.761-34.612c4.231-17.393,8.607-35.38,22.03-49.954
			c9.588-10.41,19.042-17.316,28.101-20.532c5.541-1.966,11.18-3.094,16.764-3.356c5.948-0.279,16.914,1.669,22.793,8.179
			c0.161,0.179,0.302,0.34,0.442,0.505c10.96,13.069,3.731,31.555-8.648,42.299c-15.035,13.045-36.638,17.497-55.606,11.613
			c-1.635,5.269-2.986,10.817-4.365,16.481c-2.434,9.993-0.777,13.026,0.049,13.865c0.379,0.388,1.397,1.155,3.956,1.96
			c8.623,2.705,19.408,1.348,29.58-3.724c10.799-5.381,19.956-14.064,27.49-21.847c4.252-4.391,11.263-4.505,15.654-0.255
			c4.393,4.253,4.507,11.26,0.255,15.653c-8.839,9.13-19.734,19.391-33.521,26.264C504.381,299.635,494.119,302.144,484.284,302.146
			 M484.828,225.956c10.901,2.272,23.058-0.71,31.443-7.986c4.192-3.64,6.83-9.266,6.339-11.043
			c-1.276-0.599-3.979-1.173-5.376-1.102c-3.414,0.159-6.911,0.867-10.4,2.104c-5.55,1.97-12.196,7.041-19.217,14.665
			C486.625,223.672,485.697,224.792,484.828,225.956"/>
		<path clip-path="url(#SVGID_4_)" fill="#F8F8F8" d="M1037.782,215.598c-5.548,0-10.957-0.798-16.095-2.409
			c-5.539-1.74-9.832-4.217-13.126-7.573c-11.371-11.579-8.438-30.12-7.05-35.818c4.232-17.393,9.896-34.174,23.318-48.748
			c9.587-10.41,19.042-17.317,28.101-20.532c5.541-1.966,11.181-3.094,16.765-3.356c5.947-0.279,16.914,1.669,22.793,8.179
			c0.161,0.179,0.302,0.34,0.441,0.505c10.961,13.069,3.73,31.555-8.648,42.299c-15.034,13.045-36.637,17.497-55.605,11.614
			c-1.635,5.268-2.985,10.817-4.365,16.481c-2.434,9.993-0.776,13.026,0.05,13.865c0.379,0.388,1.396,1.156,3.956,1.96
			c8.623,2.705,19.408,1.348,29.58-3.723c10.799-5.381,19.955-14.065,27.489-21.847c4.252-4.391,11.264-4.505,15.654-0.255
			c4.394,4.253,4.507,11.26,0.255,15.653c-8.839,9.13-19.734,19.391-33.521,26.264
			C1057.88,213.088,1047.618,215.596,1037.782,215.598 M1038.327,139.409c10.901,2.272,23.058-0.71,31.443-7.986
			c4.191-3.64,6.829-9.266,6.339-11.043c-1.276-0.599-3.979-1.173-5.376-1.102c-3.414,0.159-6.911,0.867-10.4,2.105
			c-5.55,1.969-12.196,7.041-19.217,14.665C1040.124,137.125,1039.196,138.245,1038.327,139.409"/>
	</g>
	<g clip-path="url(#SVGID_2_)">
		<defs>
			<path id="SVGID_7_" d="M834.896,131.732c-20.311,3.008-38.153,29.231-48.752,46.231c3.006-7.287,13.829-28.832,12.959-35.545
				c-0.314-2.428-1.255-5.49-3.928-5.095c-7.082,1.048-15.506,4.334-19.254,11.148c-3.861,6.978-6.143,14.594-9.128,22.022
				c-9.038,22.738-18.076,45.474-26.789,68.599c-2.236,5.862-6.388,13.756-5.739,18.754c0.11,0.856,0.223,1.715,1.232,2.147
				c1.519,1.229,10.667,3.513,12.939,3.178c3.072-0.456,5.949-4.52,7.353-7.348c7.171-14.018,14.913-27.828,23.418-41.024
				c5.66-8.844,36.594-54.911,43.469-56.512l0.305,0.248c-3.917,6.547-8.072,15.461-7,23.743c0.722,5.57,4.497,10.542,10.242,9.693
				c3.476-0.515,5.486-2.852,7.025-5.699c4.248-8.198,16.925-35.404,15.871-43.547c-0.914-7.055-5.949-11.152-12.099-11.152
				C836.326,131.573,835.615,131.625,834.896,131.732"/>
		</defs>
		<clipPath id="SVGID_8_">
			<use xlink:href="#SVGID_7_"  overflow="visible"/>
		</clipPath>

			<linearGradient id="SVGID_9_" gradientUnits="userSpaceOnUse" x1="0" y1="410.083" x2="1" y2="410.083" gradientTransform="matrix(877.5474 -136.8652 -136.8652 -877.5474 56292.0938 360162.375)">
			<stop  offset="0" style="stop-color:#FF3AAD"/>
			<stop  offset="0.4286" style="stop-color:#FCCC9F"/>
			<stop  offset="1" style="stop-color:#00F4A2"/>
		</linearGradient>
		<polygon clip-path="url(#SVGID_8_)" fill="url(#SVGID_9_)" points="713.529,134.706 847.406,113.826 870.262,260.373
			736.385,281.253 		"/>
	</g>
	<g clip-path="url(#SVGID_2_)">
		<defs>
			<path id="SVGID_10_" d="M73.713,343.035c-0.277-2.144,4.102-5.12,16.93-7.02c5.742-0.852,11.563-1.131,17.819-1.184
				c-7.137,5.86-14.954,9.638-24.04,10.985c-1.087,0.16-2.145,0.234-3.145,0.234C77.113,346.052,73.936,344.761,73.713,343.035
				 M276.903,87.213c-35.675,5.283-83.921,85.463-110.066,141.156c-14.064,30.176-25.289,61.244-39.629,84.036
				c-13.482-1.062-25.767-1.28-35.921,0.225c-40.485,5.995-46.906,23.686-45.444,34.969c1.481,11.426,5.309,27.309,38.445,22.4
				c25.652-3.799,42.33-14.856,56.25-32.492c31.745,4.322,51.555,12.557,86.027,7.451c11.758-1.74,21.938-5.142,25.25-7.961
				c3.177-2.799,10.052-19.103,11.056-21.871c0.309-0.773,0.348-1.506,0.293-1.935c-0.11-0.857-0.72-1.349-1.386-1.25
				c-1.337,0.197-3.896,5.671-20.597,8.144c-29.262,4.334-52.249-1.099-86.248-4.944c10.61-20.059,21.124-45.051,34.73-74.576
				c33.576-72.952,74.316-126.981,83.267-128.308c1.068-0.16,1.657,0.191,1.77,1.048c0.795,6.141-16.197,38.291-24.778,42.471
				c-0.264-0.978-0.871-1.47-1.673-1.351c-1.337,0.198-3.216,2.512-2.587,7.37c0.889,6.855,6.811,14.712,16.295,13.308
				c10.958-1.624,42.568-44.962,39.236-70.67c-1.017-7.855-6.151-17.584-19.583-17.583C280.142,86.85,278.574,86.966,276.903,87.213
				"/>
		</defs>
		<clipPath id="SVGID_11_">
			<use xlink:href="#SVGID_10_"  overflow="visible"/>
		</clipPath>

			<linearGradient id="SVGID_12_" gradientUnits="userSpaceOnUse" x1="0" y1="410.0811" x2="1" y2="410.0811" gradientTransform="matrix(877.5474 -136.8652 -136.8652 -877.5474 56282.5938 360099.375)">
			<stop  offset="0" style="stop-color:#FF3AAD"/>
			<stop  offset="0.4286" style="stop-color:#FCCC9F"/>
			<stop  offset="1" style="stop-color:#00F4A2"/>
		</linearGradient>
		<polygon clip-path="url(#SVGID_11_)" fill="url(#SVGID_12_)" points="0.521,93.689 298.348,47.24 348.385,368.066 50.559,414.517
					"/>
	</g>
	<g clip-path="url(#SVGID_2_)">
		<defs>
			<path id="SVGID_13_" d="M267.745,313.294c-1.111-8.569,7.565-31.98,17.64-46.718c17.71-26.202,34.694-32.795,43.781-34.141
				c-5.767,11.189-13.057,26.39-18.016,35.421c-8.413,14.928-35.194,47.862-40.271,48.612c-0.182,0.027-0.355,0.04-0.52,0.04
				C268.827,316.509,268.013,315.358,267.745,313.294 M344.88,213.951c-5.477,0.81-7.541,1.699-11.004,9.637
				c-2.082-4.496-8.384-7.93-18.672-6.407c-29.662,4.394-74.067,56.822-68.572,99.24c0.315,2.428,0.747,4.693,1.463,7.062
				c2.649,9.942,11.887,18.183,23.376,16.48c13.364-1.979,32.877-21.606,44.929-44.209c-1.201,4.399-1.526,9.251-0.914,13.964
				c1.554,11.998,9.104,22.961,23,20.904c17.902-2.651,35.309-29.103,37.935-37.207c0.484-1.527,0.321-3.829,0.007-6.258
				c-0.5-3.856-1.589-8.063-2.097-9.88c-0.337-1.551-1.687-2.516-3.158-2.298c-0.935,0.139-1.949,0.724-2.772,1.721
				c-1.878,2.313-17.443,30.385-28.132,31.969c-3.34,0.494-4.831-3.651-5.293-7.223c-0.205-1.572-0.255-3.021-0.118-4.06
				c1.08-26.358,18.339-68.653,20.047-71.236c1.035-1.464,1.37-4.135,1.093-6.277c-0.558-4.297-4.031-6.129-8.434-6.129
				C346.7,213.744,345.8,213.814,344.88,213.951"/>
		</defs>
		<clipPath id="SVGID_14_">
			<use xlink:href="#SVGID_13_"  overflow="visible"/>
		</clipPath>

			<linearGradient id="SVGID_15_" gradientUnits="userSpaceOnUse" x1="0" y1="410.083" x2="1" y2="410.083" gradientTransform="matrix(877.5474 -136.8652 -136.8652 -877.5474 56292.5938 360166.375)">
			<stop  offset="0" style="stop-color:#FF3AAD"/>
			<stop  offset="0.4286" style="stop-color:#FCCC9F"/>
			<stop  offset="1" style="stop-color:#00F4A2"/>
		</linearGradient>
		<polygon clip-path="url(#SVGID_14_)" fill="url(#SVGID_15_)" points="221.66,216.782 373.681,193.072 396.382,338.627
			244.361,362.337 		"/>
	</g>
	<g clip-path="url(#SVGID_2_)">
		<defs>
			<path id="SVGID_16_" d="M450.623,197.269c-3.775,0.189-7.836,2.993-9.575,3.369c-40.535,8.68-35.087,1.95-49.699,7.449
				c-9.567,3.512-13.995,16.438-13.906,18.454c0.147,3.313,1.423,4.692,2.903,4.618l0.404-0.021
				c9.215-2.34,15.615-2.558,34.956-4.975c-18.085,18.665-50.15,41.786-67.077,80.6c-0.365,0.886-0.423,2.619-0.336,4.637
				c0.178,4.032,1.088,9.326,2.491,10.557c1.403,1.227,3.123,3.451,9.86,3.114c1.75-0.089,3.767-0.337,6.307-0.896
				c11.787-2.182,80.24-17.75,86.703-21.251c3.426-1.904,7.798-9.92,7.609-14.242c-0.249-5.614-0.764-11.218-2.15-12.016
				c-1.667-1.07-3.039-1.578-4.252-1.518c-1.078,0.055-2.004,0.533-2.901,1.589c-6.023,7.377-60.905,18.365-73.654,23.193
				c13.623-27.967,55.693-66.171,69.968-79.303c4.922-1.691,6.893-2.944,8.176-4.454c1.927-2.261,2.613-5.039,2.492-7.774
				c-0.315-7.178-4.356-11.137-8.06-11.136C450.796,197.263,450.709,197.265,450.623,197.269"/>
		</defs>
		<clipPath id="SVGID_17_">
			<use xlink:href="#SVGID_16_"  overflow="visible"/>
		</clipPath>

			<linearGradient id="SVGID_18_" gradientUnits="userSpaceOnUse" x1="0" y1="410.082" x2="1" y2="410.082" gradientTransform="matrix(877.5474 -136.8652 -136.8652 -877.5474 56292.5938 360165.375)">
			<stop  offset="0" style="stop-color:#FF3AAD"/>
			<stop  offset="0.4286" style="stop-color:#FCCC9F"/>
			<stop  offset="1" style="stop-color:#00F4A2"/>
		</linearGradient>
		<polygon clip-path="url(#SVGID_17_)" fill="url(#SVGID_18_)" points="328.694,200.305 458.763,180.019 480.963,322.365
			350.895,342.65 		"/>
	</g>
	<g clip-path="url(#SVGID_2_)">
		<defs>
			<path id="SVGID_19_" d="M631.573,164.973c-20.308,3.006-38.153,29.231-48.749,46.231c3.005-7.287,13.829-28.833,12.959-35.546
				c-0.314-2.428-1.257-5.491-3.93-5.094c-7.079,1.049-15.507,4.335-19.251,11.148c-3.863,6.977-6.143,14.593-9.131,22.023
				c-9.038,22.736-18.073,45.472-26.787,68.597c-2.236,5.861-6.387,13.755-5.739,18.753c0.11,0.858,0.221,1.714,1.23,2.147
				c1.522,1.231,10.668,3.516,12.94,3.177c3.072-0.453,5.951-4.52,7.354-7.345c7.171-14.02,14.913-27.829,23.416-41.024
				c5.662-8.844,36.596-54.912,43.471-56.513l0.302,0.247c-3.915,6.549-8.072,15.461-6.999,23.745
				c0.722,5.57,4.499,10.542,10.245,9.691c3.473-0.514,5.484-2.85,7.021-5.697c4.248-8.199,16.928-35.406,15.874-43.547
				c-0.914-7.056-5.951-11.152-12.1-11.152C633.004,164.814,632.293,164.867,631.573,164.973"/>
		</defs>
		<clipPath id="SVGID_20_">
			<use xlink:href="#SVGID_19_"  overflow="visible"/>
		</clipPath>

			<linearGradient id="SVGID_21_" gradientUnits="userSpaceOnUse" x1="0" y1="410.083" x2="1" y2="410.083" gradientTransform="matrix(877.5474 -136.8652 -136.8652 -877.5474 56292.5938 360163.375)">
			<stop  offset="0" style="stop-color:#FF3AAD"/>
			<stop  offset="0.4286" style="stop-color:#FCCC9F"/>
			<stop  offset="1" style="stop-color:#00F4A2"/>
		</linearGradient>
		<polygon clip-path="url(#SVGID_20_)" fill="url(#SVGID_21_)" points="510.209,167.947 644.085,147.067 666.941,293.615
			533.065,314.495 		"/>
	</g>
	<g clip-path="url(#SVGID_2_)">
		<defs>
			<path id="SVGID_22_" d="M652.412,255.336c-3.585-5.835,6.122-69.258,63.924-84.067c-4.597,9.706-9.653,19.044-14.991,28.277
				c-4.897,8.44-34.611,58.2-43.43,59.506c-0.071,0.012-0.146,0.017-0.225,0.017C655.989,259.068,652.588,256.7,652.412,255.336
				 M784.083,39.399c-6.414,0.95-13.429,4.609-16.486,10.446c-4.146,6.876-7.344,14.771-10.616,22.098
				c-8.222,18.54-15.866,37.286-23.344,56.298c-3.682,9.425-6.809,18.912-10.891,28.397c-3.006-2.177-7.001-4.641-10.743-4.086
				c-45.628,3.36-82.615,66.528-77.412,106.663c1.479,11.426,7.313,21.771,19.606,19.949c21.644-3.204,42.334-34.8,52.424-53.616
				c-2.728,9.43-5.389,21.469-4.186,30.752c1.332,10.283,7.16,17.427,22.392,15.171c17.771-2.632,35.311-29.101,37.937-37.206
				c0.482-1.526,0.321-3.832,0.006-6.258c-0.998-7.714-2.048-12.652-5.255-12.178c-0.936,0.138-1.948,0.724-2.771,1.721
				c-2.703,3.312-17.957,30.606-29.448,32.309c-3.074,0.456-4.38-2.264-4.769-5.263l-0.147-1.143
				c-1.517-11.712,21.497-76.839,27.203-91.657c13.205-34.708,27.818-69.042,42.016-103.461c0.386-1.221,0.943-2.178,0.76-3.605
				c-0.418-3.234-2.375-5.403-5.32-5.403C784.73,39.327,784.411,39.351,784.083,39.399"/>
		</defs>
		<clipPath id="SVGID_23_">
			<use xlink:href="#SVGID_22_"  overflow="visible"/>
		</clipPath>

			<linearGradient id="SVGID_24_" gradientUnits="userSpaceOnUse" x1="0" y1="410.085" x2="1" y2="410.085" gradientTransform="matrix(877.5474 -136.8652 -136.8652 -877.5474 56285.0938 360115.375)">
			<stop  offset="0" style="stop-color:#FF3AAD"/>
			<stop  offset="0.4286" style="stop-color:#FCCC9F"/>
			<stop  offset="1" style="stop-color:#00F4A2"/>
		</linearGradient>
		<polygon clip-path="url(#SVGID_23_)" fill="url(#SVGID_24_)" points="592.593,45.066 786.714,14.79 827.336,275.247
			633.215,305.523 		"/>
	</g>
	<g clip-path="url(#SVGID_2_)">
		<defs>
			<path id="SVGID_25_" d="M886.03,124.479c-11.491,1.702-29.056,29.048-28.759,31.333c0.427,3.287,6.272,5.331,6.698,8.616
				c0.297,2.285-23.174,52.34-21.321,66.624c1.629,12.568,15.475,22.745,27.5,20.964c14.562-2.155,43.337-26.4,50.043-48.208
				c0.562-1.975,0.267-4.26,0.008-6.259c-0.334-2.572-1.4-12.894-5.139-12.341c-4.144,0.613-24.914,41.432-41.082,43.825
				c-3.341,0.496-6.926,0.151-7.443-3.849c-0.889-6.854,4.594-18.146,7.059-24.333c2.95-7.716,24.194-63.41,23.805-66.41
				c-0.545-4.209-6.345-10.009-10.703-10.009C886.47,124.431,886.247,124.447,886.03,124.479 M909.739,72.057
				c-10.957,1.623-19.979,16.06-18.499,27.487c0.722,5.57,3.762,8.029,8.975,7.258c10.153-1.503,19.832-17.202,18.46-27.77
				c-0.604-4.678-3.374-7.097-7.336-7.097C910.825,71.935,910.291,71.976,909.739,72.057"/>
		</defs>
		<clipPath id="SVGID_26_">
			<use xlink:href="#SVGID_25_"  overflow="visible"/>
		</clipPath>

			<linearGradient id="SVGID_27_" gradientUnits="userSpaceOnUse" x1="0" y1="410.083" x2="1" y2="410.083" gradientTransform="matrix(877.5474 -136.8652 -136.8652 -877.5474 56289.0938 360142.375)">
			<stop  offset="0" style="stop-color:#FF3AAD"/>
			<stop  offset="0.4286" style="stop-color:#FCCC9F"/>
			<stop  offset="1" style="stop-color:#00F4A2"/>
		</linearGradient>
		<polygon clip-path="url(#SVGID_26_)" fill="url(#SVGID_27_)" points="813.105,76.254 918.854,59.761 948.443,249.479
			842.694,265.972 		"/>
	</g>
	<g clip-path="url(#SVGID_2_)">
		<defs>
			<path id="SVGID_28_" d="M998.527,102.664c-8.879,0.68-13.654,8.129-13.355,12.587c0.32,4.747,3.434,4.797,3.789,10.119
				c0.492,7.335-9.488,27.903-21.853,47.209c-10.163,15.814-35.307,44.194-40.148,44.565c-0.541,0.041-0.829-0.226-0.868-0.802
				c-0.808-12.081,31.494-78.884,30.788-89.382c-0.315-4.748-5.074-9.153-11.396-8.669c-12.109,0.928-33.062,31.301-35.289,34.364
				c-0.368,0.606-0.58,1.489-0.52,2.352c0.277,4.169,5.132,10.014,6.881,9.882c1.615-0.125,5.057-3.279,8.371-6.281
				c-7.252,14.868-21.459,51.084-20.388,67.048c0.791,11.793,9.335,16.197,15.796,15.703c14.123-1.083,40.182-25.921,60.335-54.063
				c18.67-26.15,32.49-55.976,31.592-69.351c-0.757-11.314-5.649-15.337-12.349-15.337
				C999.46,102.609,998.997,102.628,998.527,102.664"/>
		</defs>
		<clipPath id="SVGID_29_">
			<use xlink:href="#SVGID_28_"  overflow="visible"/>
		</clipPath>

			<linearGradient id="SVGID_30_" gradientUnits="userSpaceOnUse" x1="0" y1="410.083" x2="1" y2="410.083" gradientTransform="matrix(877.5474 -136.8652 -136.8652 -877.5474 56292.5938 360163.375)">
			<stop  offset="0" style="stop-color:#FF3AAD"/>
			<stop  offset="0.4286" style="stop-color:#FCCC9F"/>
			<stop  offset="1" style="stop-color:#00F4A2"/>
		</linearGradient>
		<polygon clip-path="url(#SVGID_29_)" fill="url(#SVGID_30_)" points="882.268,105.916 1010.556,85.907 1034.362,238.548
			906.073,258.556 		"/>
	</g>
	<g clip-path="url(#SVGID_2_)">
		<defs>
			<path id="SVGID_31_" d="M486.841,229.981c0.869-1.163,1.796-2.283,2.789-3.36c7.021-7.625,13.666-12.696,19.217-14.666
				c3.489-1.238,6.986-1.946,10.4-2.105c1.398-0.069,4.1,0.503,5.376,1.104c0.491,1.777-2.147,7.402-6.339,11.043
				c-6.535,5.671-15.359,8.733-24.096,8.731C491.714,230.728,489.246,230.483,486.841,229.981 M518.209,187.734
				c-5.584,0.261-11.223,1.39-16.764,3.356c-9.06,3.214-18.514,10.122-28.102,20.531c-13.422,14.575-17.797,32.561-22.03,49.955
				c-1.387,5.698-5.61,23.032,5.762,34.61c3.294,3.357,7.587,5.835,13.126,7.574c5.138,1.612,10.547,2.409,16.095,2.409
				c9.836-0.002,20.098-2.51,29.991-7.44c13.788-6.874,24.683-17.135,33.522-26.265c4.252-4.393,4.137-11.399-0.256-15.654
				c-4.391-4.25-11.402-4.135-15.653,0.257c-7.534,7.78-16.692,16.465-27.49,21.847c-10.172,5.071-20.957,6.427-29.58,3.723
				c-2.559-0.804-3.577-1.572-3.956-1.96c-0.826-0.839-2.483-3.872-0.049-13.865c1.38-5.664,2.73-11.213,4.365-16.48
				c18.967,5.883,40.571,1.431,55.605-11.614c12.379-10.745,19.609-29.229,8.649-42.299c-0.14-0.165-0.281-0.326-0.442-0.505
				c-5.521-6.114-15.53-8.204-21.653-8.204C518.952,187.709,518.571,187.717,518.209,187.734"/>
		</defs>
		<clipPath id="SVGID_32_">
			<use xlink:href="#SVGID_31_"  overflow="visible"/>
		</clipPath>

			<linearGradient id="SVGID_33_" gradientUnits="userSpaceOnUse" x1="0" y1="410.084" x2="1" y2="410.084" gradientTransform="matrix(877.5474 -136.8652 -136.8652 -877.5474 56293.0938 360166.375)">
			<stop  offset="0" style="stop-color:#FF3AAD"/>
			<stop  offset="0.4286" style="stop-color:#FCCC9F"/>
			<stop  offset="1" style="stop-color:#00F4A2"/>
		</linearGradient>
		<polygon clip-path="url(#SVGID_32_)" fill="url(#SVGID_33_)" points="427.666,190.522 551.488,171.21 572.098,303.356
			448.276,322.669 		"/>
	</g>
	<g clip-path="url(#SVGID_2_)">
		<defs>
			<path id="SVGID_34_" d="M1040.34,143.435c0.868-1.164,1.796-2.285,2.789-3.362c7.021-7.624,13.666-12.695,19.217-14.664
				c3.489-1.239,6.985-1.946,10.4-2.106c1.398-0.071,4.099,0.504,5.376,1.103c0.491,1.777-2.147,7.402-6.339,11.042
				c-6.535,5.671-15.361,8.733-24.098,8.733C1045.211,144.181,1042.745,143.936,1040.34,143.435 M1071.708,101.187
				c-5.584,0.262-11.224,1.389-16.764,3.355c-9.06,3.216-18.515,10.122-28.103,20.533c-13.422,14.574-19.085,31.354-23.316,48.747
				c-1.389,5.698-4.322,24.239,7.048,35.818c3.295,3.357,7.587,5.834,13.127,7.573c5.138,1.612,10.547,2.41,16.095,2.41
				c9.836-0.002,20.098-2.51,29.991-7.442c13.788-6.873,24.683-17.133,33.521-26.263c4.253-4.394,4.138-11.4-0.255-15.653
				c-4.392-4.25-11.401-4.136-15.653,0.255c-7.534,7.782-16.691,16.465-27.491,21.847c-10.171,5.071-20.956,6.428-29.579,3.722
				c-2.56-0.804-3.578-1.572-3.956-1.959c-0.826-0.839-2.483-3.872-0.05-13.865c1.38-5.665,2.73-11.214,4.366-16.481
				c18.967,5.883,40.57,1.431,55.605-11.615c12.378-10.743,19.608-29.229,8.648-42.298c-0.141-0.166-0.281-0.327-0.442-0.506
				c-5.522-6.115-15.533-8.204-21.656-8.204C1072.449,101.161,1072.069,101.17,1071.708,101.187"/>
		</defs>
		<clipPath id="SVGID_35_">
			<use xlink:href="#SVGID_34_"  overflow="visible"/>
		</clipPath>

			<linearGradient id="SVGID_36_" gradientUnits="userSpaceOnUse" x1="0" y1="410.084" x2="1" y2="410.084" gradientTransform="matrix(877.5474 -136.8652 -136.8652 -877.5474 56293.0938 360166.375)">
			<stop  offset="0" style="stop-color:#FF3AAD"/>
			<stop  offset="0.4286" style="stop-color:#FCCC9F"/>
			<stop  offset="1" style="stop-color:#00F4A2"/>
		</linearGradient>
		<polygon clip-path="url(#SVGID_35_)" fill="url(#SVGID_36_)" points="981.166,103.974 1104.986,84.663 1125.597,216.81
			1001.776,236.121 		"/>
	</g>
</g>
</svg>
